<svg id="Livello_1" data-name="Livello 1" xmlns="http://www.w3.org/2000/svg" viewBox="0 0 454 467.501"><defs><style>.cls-1,.cls-2{fill:#0d6efd;}.cls-1{stroke:#0d6efd;stroke-miterlimit:10;stroke-width:4px;}.cls-3{fill:none;}</style></defs><title>ptwsmarthouse_logo-512x512</title><path class="cls-1" d="M450.41,124.418A29.964,29.964,0,0,0,439,147.958V218l-50-53.9v-18.61a30.327,30.327,0,0,0-10.55-22.84,56.5,56.5,0,1,1,71.96,1.77Z" transform="translate(-29 -21.498)"/><path class="cls-1" d="M264.633,89.315,441.89,286.97A20,20,0,0,1,447,300.323V477a10,10,0,0,0,10,10h14a10,10,0,0,0,10-10V288.932a40,40,0,0,0-10.814-27.353L273.3,51.5a30,30,0,0,0-34.6,0L41.814,261.579A40,40,0,0,0,31,288.932V477a10,10,0,0,0,10,10H55a10,10,0,0,0,10-10V300.323a20,20,0,0,1,5.11-13.353L247.367,89.315A15,15,0,0,1,264.633,89.315Z" transform="translate(-29 -21.498)"/><path class="cls-2" d="M384.815,388.829V367.936a2.6,2.6,0,0,0-2.59-2.6H342.172V344.2h-5.189v23.748a2.6,2.6,0,0,0,2.6,2.6h40.026v18.285a22.476,22.476,0,0,0-19,28.344c1.842,6.94,9.174,14.026,16.169,15.676a22.419,22.419,0,1,0,8.034-44.02Zm-2.881,39.278a17.167,17.167,0,1,1,17.409-17.172A17.213,17.213,0,0,1,381.934,428.107Z" transform="translate(-29 -21.498)"/><path class="cls-2" d="M311.849,419.006V344.2l-5.208-.046v74.791a22.412,22.412,0,1,0,5.208.064Zm-3.137,39.406a17.154,17.154,0,1,1,17.4-17.154A17.209,17.209,0,0,1,308.712,458.412Z" transform="translate(-29 -21.498)"/><path class="cls-2" d="M275.625,344.1v16.561H253.091a2.605,2.605,0,0,0-2.6,2.608V389.85a22.46,22.46,0,0,0-20.055,28.289,21.952,21.952,0,0,0,16.206,15.823,22.418,22.418,0,1,0,9.047-43.875V365.865h22.544a2.6,2.6,0,0,0,2.6-2.59V344.142Zm-11.472,55.94A17.166,17.166,0,1,1,252.024,395,17.106,17.106,0,0,1,264.153,400.037Z" transform="translate(-29 -21.498)"/><path class="cls-2" d="M210.283,421.951V344.088h-5.207v77.927a22.408,22.408,0,1,0,25.279,22.225C230.355,430.235,221.546,423.119,210.283,421.951ZM207.6,461.385a17.173,17.173,0,0,1,.237-34.345h.009a17.173,17.173,0,1,1-.246,34.345Z" transform="translate(-29 -21.498)"/><path class="cls-2" d="M174.743,344.1v24.139l-40.026.055a2.6,2.6,0,0,0-2.608,2.59v20.893a22.416,22.416,0,1,0,5.2,0V373.489h40.045a2.606,2.606,0,0,0,2.6-2.608V344.069Zm-22.9,69.856a17.173,17.173,0,1,1-17.172-17.172A17.172,17.172,0,0,1,151.844,413.953Z" transform="translate(-29 -21.498)"/><path class="cls-2" d="M374.291,296.5c-.328,0-.647.009-.975.018a19.264,19.264,0,0,0,1.577-7.8c0-.794-.054-1.6-.127-2.38-1.1-10.6-8.856-18.285-18.477-18.358a23.246,23.246,0,0,0,1.642-8.81,28.98,28.98,0,0,0-.21-3.447c-1.441-11.974-11.217-21-22.745-21a21.351,21.351,0,0,0-10.46,2.736,3.863,3.863,0,0,0,.018-.456,18.345,18.345,0,0,0-18.3-18.312c-6.612,0-10.916,2.261-13.661,4.587a17.166,17.166,0,0,0-30.724-5.572C258.982,211.524,252.927,204,240.432,204a23.558,23.558,0,0,0-23.282,20.127,17.859,17.859,0,0,0-29.94,13.2,18.283,18.283,0,0,0,.128,2.107,17.17,17.17,0,0,0-22.69,20.61,21.088,21.088,0,0,0-6.977-.036c-11.3,2.3-18.622,11.874-18.622,24.4a30.41,30.41,0,0,0,2.854,13,23.5,23.5,0,0,0-4.979,46.383,5.9,5.9,0,0,0,1.021.237h.228v-.019c1.5.046,7.825.1,36.57.092l5.208-.028c7.1.009,15.412.009,25.125.019h5.207v-.019c17.309.009,38.749.019,65.342.028l5.208.045q12.188,0,25.808.009l5.208.046h30.323v-.018s20.483,0,31.508.018h.611a23.848,23.848,0,0,0,0-47.7ZM226.628,267a2.6,2.6,0,0,1,2.683,2.5,15.782,15.782,0,0,0,.547,3.258c.91,3.37,3.323,8.318,9.686,9.777a16.728,16.728,0,0,0,3.079.407h.036a2.594,2.594,0,0,1-.254,5.181c-14.029-.587-18.092-12.33-18.28-18.457l0-.08A2.6,2.6,0,0,1,226.628,267Zm-24.363,45.3a2.567,2.567,0,0,1-.461.453c-4.279,4.074-10.238,7.309-18.568,8.35h0a2.592,2.592,0,0,1-2.891-2.254,2.345,2.345,0,0,1-.022-.325,2.6,2.6,0,0,1,2.274-2.57c1.056-.132,2.052-.319,3.021-.527a27.43,27.43,0,0,0,9.589-3.96,27.5,27.5,0,0,1-3.956-2.51,25.72,25.72,0,0,1-9.757-15.935l-.006-.029a2.594,2.594,0,0,1,5.1-.973,22.527,22.527,0,0,0,1.733,5.313,20.56,20.56,0,0,0,7.629,8.584,21.309,21.309,0,0,0,3.6,1.84c5.3-5.719,7.054-12.932,7.626-17.086a27.89,27.89,0,0,0,.284-3.328,2.594,2.594,0,1,1,5.188.02l0,.024C212.634,287.594,212.338,302.276,202.265,312.3ZM263.6,324.651c-18.938,8.015-31.382,3.387-37.855-.949a26.51,26.51,0,0,1-2.8-2.126,56.662,56.662,0,0,0-5.649,14.675c-.251,1.032-.438,1.939-.574,2.72h-5.284c1.2-7.42,6.5-30.048,27.328-38.427a2.6,2.6,0,0,1,1.939,4.815,30.665,30.665,0,0,0-3.826,1.834,35.282,35.282,0,0,0-11.089,9.974c.25.23.521.48.844.74,4.044,3.377,13.893,9.079,30.382,3.68q2.2-.72,4.565-1.72a2.6,2.6,0,0,1,2.022,4.784Zm-.247-46.478-.019.038a2.594,2.594,0,1,1-4.637-2.326c.467-.95.86-1.88,1.222-2.8a29.1,29.1,0,0,0,2.151-11.248,28.688,28.688,0,0,1-4.7,2.15,27.029,27.029,0,0,1-19.623-.623l-.031-.012a2.594,2.594,0,0,1,1.988-4.793,23.74,23.74,0,0,0,5.3,1.485,22.1,22.1,0,0,0,12.877-1.885,22.78,22.78,0,0,0,3.444-1.992c-2-8.21-7.547-14.051-10.892-16.94a29.09,29.09,0,0,0-2.62-2.048,2.6,2.6,0,0,1-.715-3.6h0a2.594,2.594,0,0,1,3.6-.716c.184.123,13.039,8.927,15.959,23.677a2.551,2.551,0,0,1,.087.474C267.853,263.132,267.25,270.246,263.353,278.173ZM279.736,330.1a2.594,2.594,0,0,1-1.824-4.857,17.083,17.083,0,0,0,3.642-2.085,18.791,18.791,0,0,0,7.6-12.571,23.559,23.559,0,0,0,.237-4.573,2.594,2.594,0,0,1,5.183-.223A24.7,24.7,0,0,1,279.736,330.1Zm-3.8-31.554a2.594,2.594,0,0,1-2.234-2.565,2.466,2.466,0,0,1,.026-.364,2.594,2.594,0,0,1,2.929-2.208c.939.132,1.831.2,2.7.24,14.47.664,19.8-10.79,21.529-16.369a24.207,24.207,0,0,0,.732-2.929h0l0-.024a2.594,2.594,0,1,1,5.113.879C306.691,275.476,301.916,302.2,275.935,298.546Zm49.491,28.232a2.487,2.487,0,0,1-.411.4,27.511,27.511,0,0,1-16.058,7.218h0a2.6,2.6,0,0,1-2.9-2.252,2.713,2.713,0,0,1-.02-.325,2.593,2.593,0,0,1,2.272-2.571,28.419,28.419,0,0,0,3.049-.559,22.917,22.917,0,0,0,7-2.88,23.756,23.756,0,0,1-2.857-1.872,22.33,22.33,0,0,1-8.452-13.816l0-.018a2.594,2.594,0,0,1,5.094-.984,18.18,18.18,0,0,0,2.21,5.852,17.234,17.234,0,0,0,4.264,4.8c.1.08.207.161.31.237a18.244,18.244,0,0,0,3.773,2.155A26.846,26.846,0,0,0,328.86,308.6a25.154,25.154,0,0,0,.342-3.4h0a2.595,2.595,0,0,1,5.189.048C334.389,305.426,334.132,318.114,325.426,326.778Z" transform="translate(-29 -21.498)"/><path class="cls-3" d="M326.132,441.258a17.156,17.156,0,1,1-5.025-12.129A17.154,17.154,0,0,1,326.132,441.258Z" transform="translate(-29 -21.498)"/><path class="cls-3" d="M381.934,428.107a17.167,17.167,0,1,1,17.409-17.172A17.215,17.215,0,0,1,381.934,428.107Z" transform="translate(-29 -21.498)"/><path class="cls-3" d="M269.187,412.175a17.187,17.187,0,1,1-5.034-12.138A17.163,17.163,0,0,1,269.187,412.175Z" transform="translate(-29 -21.498)"/><path class="cls-3" d="M225.112,444.222A17.168,17.168,0,1,1,207.94,427.04h.009A17.178,17.178,0,0,1,225.112,444.222Z" transform="translate(-29 -21.498)"/><path class="cls-3" d="M151.844,413.953a17.173,17.173,0,1,1-17.173-17.172A17.172,17.172,0,0,1,151.844,413.953Z" transform="translate(-29 -21.498)"/><path class="cls-3" d="M212.637,287.066a2.594,2.594,0,1,0-5.188-.021,27.873,27.873,0,0,1-.284,3.328c-.572,4.154-2.323,11.368-7.626,17.086a21.379,21.379,0,0,1-3.6-1.839,20.562,20.562,0,0,1-7.629-8.585,22.527,22.527,0,0,1-1.733-5.313,2.594,2.594,0,0,0-5.1.974l.006.029a25.717,25.717,0,0,0,9.757,15.934,27.408,27.408,0,0,0,3.956,2.51,27.43,27.43,0,0,1-9.589,3.96c-.969.208-1.965.4-3.021.527a2.6,2.6,0,0,0-2.274,2.571,2.366,2.366,0,0,0,.022.325,2.592,2.592,0,0,0,2.891,2.253h0c8.33-1.041,14.289-4.276,18.568-8.351a2.567,2.567,0,0,0,.461-.453c10.073-10.02,10.369-24.7,10.37-24.912Z" transform="translate(-29 -21.498)"/><path class="cls-3" d="M263.6,324.651c-18.938,8.015-31.382,3.387-37.855-.949a26.51,26.51,0,0,1-2.8-2.126,56.649,56.649,0,0,0-5.649,14.675c-.251,1.032-.438,1.939-.574,2.72h-5.284c1.2-7.42,6.5-30.048,27.328-38.427a2.6,2.6,0,0,1,1.939,4.815,30.665,30.665,0,0,0-3.826,1.834,35.282,35.282,0,0,0-11.089,9.974c.25.23.521.48.844.74,4.044,3.377,13.893,9.079,30.382,3.68q2.2-.72,4.565-1.72a2.6,2.6,0,0,1,2.022,4.784Z" transform="translate(-29 -21.498)"/><path class="cls-3" d="M245.106,285.643a2.577,2.577,0,0,0-2.447-2.7h-.036a16.728,16.728,0,0,1-3.079-.407c-6.363-1.459-8.776-6.407-9.686-9.777a15.782,15.782,0,0,1-.547-3.258,2.595,2.595,0,0,0-5.188.087l0,.08c.188,6.127,4.251,17.87,18.28,18.457A2.6,2.6,0,0,0,245.106,285.643Z" transform="translate(-29 -21.498)"/><path class="cls-3" d="M301.619,274.351a24.207,24.207,0,0,1-.732,2.929c-1.727,5.579-7.059,17.033-21.529,16.369-.871-.04-1.763-.108-2.7-.24a2.594,2.594,0,1,0-.721,5.137c25.981,3.65,30.756-23.07,30.8-23.341a2.594,2.594,0,1,0-5.113-.879l0,.025Z" transform="translate(-29 -21.498)"/><path class="cls-3" d="M294.57,305.791a2.594,2.594,0,0,0-5.183.223,23.555,23.555,0,0,1-.237,4.573,18.791,18.791,0,0,1-7.6,12.571,17.083,17.083,0,0,1-3.642,2.085,2.594,2.594,0,0,0,1.824,4.857h0A24.7,24.7,0,0,0,294.57,305.791Z" transform="translate(-29 -21.498)"/><path class="cls-3" d="M329.2,305.2a25.154,25.154,0,0,1-.342,3.4,26.846,26.846,0,0,1-6.165,13.569,18.244,18.244,0,0,1-3.773-2.155c-.1-.076-.206-.157-.31-.237a17.234,17.234,0,0,1-4.264-4.8,18.183,18.183,0,0,1-2.21-5.851,2.594,2.594,0,0,0-5.094.983l0,.018A22.33,22.33,0,0,0,315.5,323.94a23.756,23.756,0,0,0,2.857,1.872,22.917,22.917,0,0,1-7,2.88,28.419,28.419,0,0,1-3.049.559,2.593,2.593,0,0,0-2.272,2.571,2.713,2.713,0,0,0,.02.325,2.6,2.6,0,0,0,2.9,2.252h0a27.511,27.511,0,0,0,16.058-7.218,2.487,2.487,0,0,0,.411-.4c8.706-8.664,8.963-21.352,8.965-21.534a2.595,2.595,0,0,0-5.189-.048Z" transform="translate(-29 -21.498)"/><path class="cls-3" d="M247.1,233.545a2.6,2.6,0,0,0,.715,3.6,29.09,29.09,0,0,1,2.62,2.048c3.345,2.889,8.9,8.729,10.892,16.94a22.78,22.78,0,0,1-3.444,1.992A22.108,22.108,0,0,1,245,260.008a23.74,23.74,0,0,1-5.3-1.485,2.594,2.594,0,0,0-1.988,4.793l.031.012a27.029,27.029,0,0,0,19.623.623,28.688,28.688,0,0,0,4.7-2.15,29.1,29.1,0,0,1-2.151,11.248c-.362.921-.755,1.851-1.222,2.8a2.594,2.594,0,1,0,4.637,2.326l.019-.038c3.9-7.927,4.5-15.041,3.387-21.157a2.551,2.551,0,0,0-.087-.474c-2.92-14.75-15.775-23.554-15.959-23.677a2.594,2.594,0,0,0-3.6.715Z" transform="translate(-29 -21.498)"/></svg>